<svg xmlns="http://www.w3.org/2000/svg" width="24" height="24" viewBox="0 0 24 24">
    <g fill="none" fill-rule="evenodd">
        <g fill-rule="nonzero">
            <g>
                <g>
                    <g>
                        <g>
                            <g>
                                <g transform="translate(-1159 -387) translate(150 135) translate(0 56) translate(601 191) translate(104 5) translate(282) translate(22)">
                                    <rect width="24" height="24" fill="#5288F7" rx="1"/>
                                    <path fill="#FFF" d="M5.273 15.907c1.17 0 2.076-.308 2.722-.922.645-.615.968-1.49.968-2.627 0-1.056-.307-1.863-.92-2.422-.613-.559-1.484-.838-2.612-.838H3v6.809h2.273zm.048-1.51h-.423v-3.814h.553c.519 0 .905.151 1.16.452.255.301.382.764.382 1.388 0 .668-.134 1.164-.404 1.488-.269.325-.692.487-1.268.487zM12.062 16c.561 0 1.05-.09 1.466-.272.416-.182.735-.437.956-.764.221-.328.332-.703.332-1.125 0-.46-.118-.84-.353-1.143-.236-.303-.656-.586-1.262-.85-.63-.28-1.018-.472-1.16-.578-.143-.105-.214-.225-.214-.358 0-.125.056-.229.168-.313.112-.083.292-.125.538-.125.478 0 1.045.146 1.701.438l.582-1.421C14.06 9.163 13.318 9 12.59 9c-.823 0-1.47.175-1.941.526-.471.351-.707.84-.707 1.467 0 .336.056.626.166.871.11.246.28.463.51.652.229.19.572.385 1.03.587.506.22.818.367.935.438.117.071.202.142.254.212.053.07.08.151.08.244 0 .15-.066.271-.197.366-.132.095-.338.142-.62.142-.327 0-.686-.05-1.076-.151-.391-.101-.768-.242-1.13-.422v1.64c.343.158.673.269.99.333.317.063.71.095 1.177.095zm5.738-.093v-2.259h.533c.852 0 1.51-.207 1.973-.622.463-.414.694-1.002.694-1.763 0-.692-.223-1.226-.668-1.602-.445-.375-1.111-.563-1.999-.563h-2.431v6.809H17.8zm.346-3.759H17.8v-1.565h.49c.525 0 .788.23.788.69 0 .273-.084.487-.252.643-.168.155-.395.232-.68.232z"/>
                                </g>
                            </g>
                        </g>
                    </g>
                </g>
            </g>
        </g>
    </g>
</svg>
