<?xml version="1.0" encoding="UTF-8"?>
<svg width="24px" height="24px" viewBox="0 0 24 24" version="1.1" xmlns="http://www.w3.org/2000/svg" xmlns:xlink="http://www.w3.org/1999/xlink">
    <!-- Generator: Sketch 51.3 (57544) - http://www.bohemiancoding.com/sketch -->
    <title>icons/ic-facebook</title>
    <desc>Created with Sketch.</desc>
    <defs>
        <path d="M22.6758621,0 L1.32413793,0 C0.592836745,-4.47792828e-17 8.95585657e-17,0.592836745 0,1.32413793 L0,22.6758621 C8.95585657e-17,23.4071633 0.592836745,24 1.32413793,24 L12.8275862,24 L12.8275862,14.7186207 L9.70344828,14.7186207 L9.70344828,11.0855172 L12.8275862,11.0855172 L12.8275862,8.41241379 C12.8275862,5.31310345 14.7227586,3.62482759 17.4868966,3.62482759 C18.4183753,3.62279621 19.3493164,3.66975762 20.2758621,3.76551724 L20.2758621,7.00551724 L18.3724138,7.00551724 C16.8662069,7.00551724 16.5724138,7.71724138 16.5724138,8.76827586 L16.5724138,11.0813793 L20.1724138,11.0813793 L19.7048276,14.7144828 L16.5517241,14.7144828 L16.5517241,24 L22.6758621,24 C23.4071633,24 24,23.4071633 24,22.6758621 L24,1.32413793 C24,0.592836745 23.4071633,4.47792828e-17 22.6758621,0 Z" id="path-1"></path>
    </defs>
    <g id="icons/ic-facebook" stroke="none" stroke-width="1" fill="none" fill-rule="evenodd">
        <g>
            <mask id="mask-2" fill="white">
                <use xlink:href="#path-1"></use>
            </mask>
            <use id="Shape" fill="#345190" fill-rule="nonzero" xlink:href="#path-1"></use>
        </g>
    </g>
</svg>