<?xml version="1.0" encoding="UTF-8"?>
<svg width="24px" height="24px" viewBox="0 0 24 24" version="1.1" xmlns="http://www.w3.org/2000/svg" xmlns:xlink="http://www.w3.org/1999/xlink">
    <title>Channel/channel-ico-twdsp</title>
    <g id="Channel/channel-ico-twdsp" stroke="none" stroke-width="1" fill="none" fill-rule="evenodd">
        <g id="ic-tradingworks" fill-rule="nonzero">
            <rect id="bound" fill="#3E566D" x="0" y="0" width="24" height="24" rx="1"></rect>
            <g id="Group" transform="translate(2.000000, 4.500000)" fill="#FFFFFF">
                <g id="WEB" transform="translate(0.000000, 4.000000)">
                    <path d="M1.23132639,7 L3.23223178,7 L3.82073336,3.9516129 C3.92032594,3.41532258 4.00181077,2.85080645 4.08329561,2.32392473 L4.12856496,2.32392473 C4.19194206,2.85080645 4.28248076,3.41532258 4.39112721,3.9516129 L4.99773653,7 L7.0348574,7 L8.2028067,0 L6.66364871,0 L6.22906292,3.18951613 C6.14757809,3.91397849 6.05703938,4.65725806 5.97555455,5.40994624 L5.9302852,5.40994624 C5.79447714,4.65725806 5.67677682,3.90456989 5.54096876,3.18951613 L4.83476686,0 L3.47668628,0 L2.78859212,3.18951613 C2.65278407,3.91397849 2.51697601,4.66666667 2.39022182,5.40994624 L2.35400634,5.40994624 L2.08239022,3.18951613 L1.65685831,0 L0,0 L1.23132639,7 Z" id="W"></path>
                    <polygon id="E" points="9.11724762 7 13.4902671 7 13.4902671 5.58870968 10.7378904 5.58870968 10.7378904 4.10215054 12.9923042 4.10215054 12.9923042 2.69086022 10.7378904 2.69086022 10.7378904 1.39247312 13.3906745 1.39247312 13.3906745 0 9.11724762 0"></polygon>
                    <path d="M14.8211861,7 L17.3653237,7 C18.8320507,7 20,6.36021505 20,4.93010753 C20,3.99865591 19.4839294,3.47177419 18.8048891,3.28360215 L18.8048891,3.24596774 C19.3481213,3.02956989 19.6831145,2.35215054 19.6831145,1.7311828 C19.6831145,0.385752688 18.5694885,0 17.1751924,0 L14.8211861,0 L14.8211861,7 Z M16.4418289,2.77553763 L16.4418289,1.27956989 L17.1118153,1.27956989 C17.7908556,1.27956989 18.1077411,1.48655914 18.1077411,1.98521505 C18.1077411,2.46505376 17.7999095,2.77553763 17.1118153,2.77553763 L16.4418289,2.77553763 Z M16.4418289,5.71102151 L16.4418289,4.01747312 L17.2476234,4.01747312 C18.0353101,4.01747312 18.4246265,4.24327957 18.4246265,4.8172043 C18.4246265,5.41935484 18.0262562,5.71102151 17.2476234,5.71102151 L16.4418289,5.71102151 Z" id="B"></path>
                </g>
            </g>
        </g>
    </g>
</svg>