<svg xmlns="http://www.w3.org/2000/svg" xmlns:xlink="http://www.w3.org/1999/xlink" width="56" height="56" viewBox="0 0 56 56">
    <defs>
        <filter id="vu9cvcprna" width="103.5%" height="105.9%" x="-1.7%" y="-2.9%" filterUnits="objectBoundingBox">
            <feOffset in="SourceAlpha" result="shadowOffsetOuter1"/>
            <feGaussianBlur in="shadowOffsetOuter1" result="shadowBlurOuter1" stdDeviation="2"/>
            <feColorMatrix in="shadowBlurOuter1" result="shadowMatrixOuter1" values="0 0 0 0 0 0 0 0 0 0 0 0 0 0 0 0 0 0 0.1 0"/>
            <feMerge>
                <feMergeNode in="shadowMatrixOuter1"/>
                <feMergeNode in="SourceGraphic"/>
            </feMerge>
        </filter>
        <rect id="xkkgqadgvb" width="56" height="56" x="0" y="0" rx="4"/>
    </defs>
    <g fill="none" fill-rule="evenodd">
        <g>
            <g>
                <g filter="url(#vu9cvcprna)" transform="translate(-353 -143) translate(0 55) translate(271 64)">
                    <g>
                        <g transform="translate(16 24) translate(66)">
                            <mask id="wa3z9swhxc" fill="#fff">
                                <use xlink:href="#xkkgqadgvb"/>
                            </mask>
                            <use fill="#DCE1E6" xlink:href="#xkkgqadgvb"/>
                            <g fill="#99A5B2" fill-rule="nonzero" mask="url(#wa3z9swhxc)">
                                <path d="M24.5 18c4.167 0 7.5 3.333 7.5 7.5S28.667 33 24.5 33 17 29.667 17 25.5s3.333-7.5 7.5-7.5zM12 19c.552 0 1 .448 1 1v11c0 .552-.448 1-1 1H1c-.552 0-1-.448-1-1V20c0-.552.448-1 1-1h11zm4.514-17.914c.141.085.259.202.343.343l7.234 12.057c.284.473.13 1.087-.343 1.371-.155.094-.333.143-.514.143H8.766c-.552 0-1-.448-1-1 0-.181.05-.36.143-.514l7.234-12.057c.284-.473.898-.627 1.371-.343z" transform="translate(12 11)"/>
                            </g>
                        </g>
                    </g>
                </g>
            </g>
        </g>
    </g>
</svg>
