<?xml version="1.0" encoding="UTF-8"?>
<svg width="517px" height="40px" viewBox="0 0 517 40" version="1.1" xmlns="http://www.w3.org/2000/svg" xmlns:xlink="http://www.w3.org/1999/xlink">
    <title>samsungCard</title>
    <g id="Page-1" stroke="none" stroke-width="1" fill="none" fill-rule="evenodd">
        <g id="samsungCard" fill="#000000" fill-rule="nonzero">
            <g id="Group" transform="translate(0.000000, 0.000000)">
                <path d="M16.1177169,40 C2.02247877,40 -0.644187901,34.2857143 0.11771686,27.4285714 L11.5462883,27.4285714 C11.5462883,31.2380952 11.9272407,34.2857143 18.0224788,34.2857143 C21.8320026,34.2857143 23.7367645,32.3809524 23.7367645,29.7142857 C23.7367645,22.8571429 0.879621622,22.4761905 0.879621622,11.047619 C0.498669241,4.95238095 4.68914543,0 18.4034311,0 C29.4510502,0 35.1653359,3.42857143 34.4034311,11.4285714 L23.3558121,11.4285714 C23.3558121,8.38095238 22.5939073,5.71428571 18.0224788,5.71428571 C14.212955,5.71428571 12.3081931,7.23809524 12.3081931,9.9047619 C12.3081931,17.1428571 35.1653359,16.7619048 35.1653359,28.5714286 C35.1653359,38.4761905 24.4986692,40 16.1177169,40 Z" id="Path"></path>
                <path d="M38.5939073,39.2380952 L53.8320026,0.761904762 L68.6891454,0.761904762 L83.5462883,39.2380952 L71.3558121,39.2380952 L68.6891454,30.4761905 L53.0700978,30.4761905 L50.0224788,38.8571429 L38.5939073,38.8571429 L38.5939073,39.2380952 Z M60.6891454,8 L60.6891454,8 L55.3558121,24.7619048 L66.4034311,24.7619048 L60.6891454,8 Z" id="Shape"></path>
                <polygon id="Path" points="88.4986692 39.2380952 88.4986692 0.761904762 106.784384 0.761904762 115.165336 26.6666667 115.165336 26.6666667 124.308193 0.380952381 142.212955 0.380952381 142.212955 38.8571429 131.165336 38.8571429 131.165336 9.52380952 131.165336 9.52380952 120.498669 39.2380952 109.45105 39.2380952 99.5462883 9.52380952 99.5462883 9.52380952 99.5462883 39.2380952"></polygon>
                <path d="M165.832003,40 C151.736764,40 149.070098,34.2857143 149.832003,27.4285714 L161.260574,27.4285714 C161.260574,31.2380952 161.641526,34.2857143 167.736764,34.2857143 C171.546288,34.2857143 173.45105,32.3809524 173.45105,29.7142857 C173.45105,22.8571429 150.593907,22.4761905 150.593907,11.047619 C150.593907,4.95238095 154.784384,0.380952381 168.498669,0.380952381 C179.546288,0.380952381 185.260574,3.80952381 184.498669,11.8095238 L173.45105,11.8095238 C173.45105,8.76190476 172.689145,6.0952381 168.117717,6.0952381 C164.308193,6.0952381 162.403431,7.61904762 162.403431,10.2857143 C162.403431,17.5238095 185.260574,17.1428571 185.260574,28.952381 C184.879622,38.4761905 174.593907,40 165.832003,40 Z" id="Path"></path>
                <path d="M229.45105,0.761904762 L229.45105,28.1904762 C229.45105,33.9047619 224.879622,40 210.784384,40 C198.212955,40 192.117717,35.4285714 192.117717,28.1904762 L192.117717,0.761904762 L203.546288,0.761904762 L203.546288,27.4285714 C203.546288,32 206.593907,33.9047619 210.403431,33.9047619 C215.355812,33.9047619 217.641526,31.6190476 217.641526,27.4285714 L217.641526,0.761904762 L229.45105,0.761904762 Z" id="Path"></path>
                <polygon id="Path" points="238.593907 39.2380952 238.593907 0.761904762 253.832003 0.761904762 268.308193 27.4285714 268.308193 27.4285714 268.308193 0.761904762 278.97486 0.761904762 278.97486 39.2380952 264.117717 39.2380952 249.260574 11.047619 249.260574 11.047619 249.260574 39.2380952"></polygon>
                <path d="M313.260574,12.5714286 C313.260574,9.14285714 312.498669,5.71428571 306.403431,5.71428571 C299.165336,5.71428571 299.165336,12.5714286 299.165336,19.8095238 C299.165336,32 300.689145,33.9047619 307.165336,33.9047619 C309.070098,33.9047619 310.97486,33.5238095 312.879622,33.1428571 L312.879622,24.7619048 L306.784384,24.7619048 L306.784384,19.047619 L324.308193,19.047619 L324.308193,38.4761905 C321.260574,38.8571429 313.260574,39.6190476 309.070098,39.6190476 C290.022479,39.6190476 287.736764,33.9047619 287.736764,19.4285714 C287.736764,9.52380952 288.498669,3.38353684e-15 307.165336,3.38353684e-15 C318.212955,3.38353684e-15 325.45105,4.57142857 324.689145,12.5714286 L313.260574,12.5714286 Z" id="Path"></path>
            </g>
            <g id="Group" transform="translate(350.212955, 0.000000)">
                <path d="M0,19.8095238 C0,9.9047619 0,0 18.6666667,0 C30.4761905,0 35.047619,4.57142857 34.6666667,12.952381 L23.6190476,12.952381 C23.6190476,8 22.4761905,6.0952381 19.047619,6.0952381 C12.5714286,6.0952381 11.8095238,10.2857143 11.8095238,20.1904762 C11.8095238,30.0952381 12.5714286,34.2857143 19.047619,34.2857143 C24.3809524,34.2857143 24,29.3333333 24.3809524,26.2857143 L35.8095238,26.2857143 C35.8095238,36.5714286 30.0952381,40 19.4285714,40 C0,40 0,30.0952381 0,19.8095238 Z" id="Path"></path>
                <path d="M37.7142857,39.2380952 L52.952381,0.761904762 L67.8095238,0.761904762 L82.6666667,39.2380952 L70.4761905,39.2380952 L67.8095238,30.4761905 L52.1904762,30.4761905 L49.1428571,38.8571429 L37.7142857,38.8571429 L37.7142857,39.2380952 Z M59.8095238,8 L59.8095238,8 L54.4761905,24.7619048 L65.5238095,24.7619048 L59.8095238,8 Z" id="Shape"></path>
                <path d="M99.047619,39.2380952 L87.6190476,39.2380952 L87.6190476,0.761904762 L108.571429,0.761904762 C116.190476,0.761904762 121.52381,4.19047619 121.52381,10.6666667 C121.52381,15.6190476 118.857143,19.4285714 111.238095,20.1904762 L111.238095,20.1904762 C113.904762,20.5714286 121.142857,20.952381 121.142857,27.8095238 C121.142857,30.0952381 121.52381,37.3333333 122.285714,39.2380952 L111.238095,39.2380952 C109.714286,36.952381 110.095238,34.2857143 110.095238,31.6190476 C110.095238,27.047619 110.857143,23.2380952 102.095238,23.2380952 L99.047619,23.2380952 L99.047619,39.2380952 Z M99.047619,17.1428571 L104,17.1428571 C108.571429,17.1428571 109.714286,14.0952381 109.714286,11.4285714 C109.714286,7.61904762 107.428571,6.47619048 104,6.47619048 L99.047619,6.47619048 L99.047619,17.1428571 Z" id="Shape"></path>
                <path d="M129.52381,0.761904762 L148.571429,0.761904762 C163.428571,0.761904762 166.47619,7.61904762 166.47619,19.8095238 C166.47619,25.9047619 167.619048,39.2380952 148.190476,39.2380952 L129.52381,39.2380952 L129.52381,0.761904762 Z M140.952381,33.1428571 L146.285714,33.1428571 C153.142857,33.1428571 154.666667,29.3333333 154.666667,19.8095238 C154.666667,12.5714286 154.666667,6.47619048 146.666667,6.47619048 L140.952381,6.47619048 L140.952381,33.1428571 Z" id="Shape"></path>
            </g>
        </g>
    </g>
</svg>