<?xml version="1.0" encoding="UTF-8"?>
<svg width="24px" height="24px" viewBox="0 0 24 24" version="1.1" xmlns="http://www.w3.org/2000/svg" xmlns:xlink="http://www.w3.org/1999/xlink">
    <!-- Generator: Sketch 51.3 (57544) - http://www.bohemiancoding.com/sketch -->
    <title>icons/ic-adwords</title>
    <desc>Created with Sketch.</desc>
    <defs></defs>
    <g id="icons/ic-adwords" stroke="none" stroke-width="1" fill="none" fill-rule="evenodd">
        <g>
            <rect id="bound" x="0" y="0" width="24" height="24"></rect>
            <g id="Group-9" transform="translate(0.000000, 1.000000)">
                <path d="M2.01061603,21.3208844 L2.01061603,21.3208506 C0.0962194093,20.2156017 -0.56578903,17.7449519 0.539493671,15.8306228 L8.48639662,2.06616709 C9.59164557,0.151770464 12.0622954,-0.510237975 13.976692,0.595044726 C15.8910549,1.70032743 16.5530633,4.17094346 15.4478143,6.08530633 L7.50087764,19.849762 C6.39562869,21.7641586 3.9249789,22.4261333 2.01061603,21.3208844" id="Fill-1" fill="#FBBD04"></path>
                <path d="M21.9661941,21.2611848 C20.0517975,22.3664675 17.5811814,21.7044591 16.4759325,19.7900962 L8.52899578,6.02564051 C7.42374684,4.11127764 8.08575527,1.64062785 10.0001181,0.535378903 C11.9145148,-0.569903797 14.3851308,0.0921046414 15.4903797,2.00646751 L23.4372827,15.7709232 C24.5425654,17.6852861 23.880557,20.1559359 21.9661941,21.2611848" id="Fill-4" fill="#438EDC"></path>
                <path d="M8.14962363,17.7810295 C8.14962363,20.0314937 6.32525232,21.855865 4.07482194,21.855865 C1.82435781,21.855865 -1.35021097e-05,20.0314937 -1.35021097e-05,17.7810295 C-1.35021097e-05,15.5305992 1.82435781,13.7062278 4.07482194,13.7062278 C6.32525232,13.7062278 8.14962363,15.5305992 8.14962363,17.7810295" id="Fill-6" fill="#34A952"></path>
            </g>
        </g>
    </g>
</svg>