<svg xmlns="http://www.w3.org/2000/svg" width="18" height="18" viewBox="0 0 18 18">
    <g fill="none" fill-rule="evenodd">
        <g>
            <g>
                <g>
                    <g>
                        <g>
                            <g transform="translate(-523 -2008) translate(150 1753) translate(40 138) translate(85 117) translate(122) translate(126)">
                                <circle cx="9" cy="9" r="8" fill="#FFF" stroke="#20C997" stroke-width="2"/>
                                <path fill="#FFB804" d="M8.762 11.677l-1.847.971c-.25.131-.558.035-.689-.214-.052-.1-.07-.213-.051-.324l.352-2.057c.029-.165-.026-.334-.146-.452L4.886 8.145c-.202-.197-.206-.52-.009-.722.078-.08.181-.133.292-.149l2.065-.3c.167-.024.31-.129.385-.28l.923-1.87c.125-.254.431-.357.684-.233.1.05.182.132.232.232l.923 1.872c.075.15.218.255.385.279l2.065.3c.279.04.472.3.432.579-.017.11-.069.213-.15.292L11.62 9.6c-.12.118-.175.287-.146.452l.352 2.057c.048.278-.139.542-.416.59-.111.018-.225 0-.324-.052l-1.847-.971c-.15-.078-.327-.078-.476 0z"/>
                            </g>
                        </g>
                    </g>
                </g>
            </g>
        </g>
    </g>
</svg>
