<svg xmlns="http://www.w3.org/2000/svg" width="56" height="56" viewBox="0 0 56 56">
    <defs>
        <filter id="k0u7qk6a9a" width="103.5%" height="105.9%" x="-1.7%" y="-2.9%" filterUnits="objectBoundingBox">
            <feOffset in="SourceAlpha" result="shadowOffsetOuter1"/>
            <feGaussianBlur in="shadowOffsetOuter1" result="shadowBlurOuter1" stdDeviation="2"/>
            <feColorMatrix in="shadowBlurOuter1" result="shadowMatrixOuter1" values="0 0 0 0 0 0 0 0 0 0 0 0 0 0 0 0 0 0 0.1 0"/>
            <feMerge>
                <feMergeNode in="shadowMatrixOuter1"/>
                <feMergeNode in="SourceGraphic"/>
            </feMerge>
        </filter>
    </defs>
    <g fill="none" fill-rule="evenodd">
        <g>
            <g>
                <g filter="url(#k0u7qk6a9a)" transform="translate(-353 -459) translate(0 55) translate(271 380)">
                    <g>
                        <g transform="translate(16 24) translate(66)">
                            <rect width="56" height="56" fill="#4169FF" rx="4"/>
                            <g fill-rule="nonzero">
                                <path fill="#36D2B2" d="M12 32H1c-.552 0-1-.448-1-1V20c0-.552.448-1 1-1h11c.552 0 1 .448 1 1v11c0 .552-.448 1-1 1z" transform="translate(12 11)"/>
                                <path fill="#FF7772" d="M23.234 15H8.766c-.552 0-1-.448-1-1 0-.181.05-.36.143-.514l7.234-12.057c.284-.473.898-.627 1.371-.343.141.085.259.202.343.343l7.234 12.057c.284.473.13 1.087-.343 1.371-.155.094-.333.143-.514.143z" transform="translate(12 11)"/>
                                <path fill="#FFDC00" d="M24.5 18c4.167 0 7.5 3.333 7.5 7.5S28.667 33 24.5 33 17 29.667 17 25.5s3.333-7.5 7.5-7.5z" transform="translate(12 11)"/>
                            </g>
                        </g>
                    </g>
                </g>
            </g>
        </g>
    </g>
</svg>
