<svg id="Layer_1" data-name="Layer 1" xmlns="http://www.w3.org/2000/svg" viewBox="0 0 135.7 14.79"><defs><style>.cls-1{fill:#231916;}</style></defs><path class="cls-1" d="M4.26,14.79c-3.7,0-4.4-2.18-4.24-4.66H3c0,1.37,0,2.52,1.7,2.52A1.43,1.43,0,0,0,6.23,11c0-2.57-6-2.73-6-7,0-2.24,1.07-4,4.72-4C7.83,0,9.28,1.31,9.08,4.3H6.17c0-1.07-.18-2.16-1.39-2.16A1.4,1.4,0,0,0,3.23,3.67c0,2.71,6,2.48,6,7C9.26,14.35,6.54,14.79,4.26,14.79Z"/><path class="cls-1" d="M10.21,14.55l4-14.31h3.94L22,14.55H18.86l-.8-3.17H14l-.81,3.17ZM16,3h0L14.57,9.18h2.86Z"/><path class="cls-1" d="M23.26,14.55V.24h4.82L30.32,10h0L32.73.24h4.66V14.55H34.48v-11h0l-2.76,11H28.83l-2.62-11h0v11Z"/><path class="cls-1" d="M43.62,14.79c-3.71,0-4.4-2.18-4.24-4.66h3c0,1.37.06,2.52,1.7,2.52A1.43,1.43,0,0,0,45.58,11c0-2.57-6-2.73-6-7,0-2.24,1.08-4,4.72-4,2.92,0,4.36,1.31,4.17,4.3H45.52c0-1.07-.18-2.16-1.39-2.16a1.39,1.39,0,0,0-1.54,1.53c0,2.71,6,2.48,6,7C48.62,14.35,45.9,14.79,43.62,14.79Z"/><path class="cls-1" d="M60.33.24V10.39c0,2.14-1.21,4.4-4.86,4.4-3.29,0-4.87-1.7-4.87-4.4V.24h3v10c0,1.77.76,2.46,1.85,2.46,1.3,0,1.9-.87,1.9-2.46V.24Z"/><path class="cls-1" d="M62.69,14.55V.24h4l3.8,9.91h0V.24h2.8V14.55H69.43L65.53,4.08h0V14.55Z"/><path class="cls-1" d="M82.34,4.64c0-1.33-.2-2.5-1.78-2.5-1.87,0-1.87,2.52-1.87,5.29,0,4.49.44,5.28,2.14,5.28a4.68,4.68,0,0,0,1.49-.28V9.26H80.69V7.06h4.62v7.25a27,27,0,0,1-4,.48c-5,0-5.61-2.08-5.61-7.51,0-3.61.18-7.28,5.07-7.28,2.94,0,4.76,1.65,4.58,4.64Z"/><path class="cls-1" d="M92,7.4C92,3.61,92,0,96.91,0c3,0,4.28,1.69,4.16,4.76H98.14c0-1.91-.34-2.62-1.23-2.62C95.23,2.14,95,3.73,95,7.4s.22,5.25,1.9,5.25c1.39,0,1.33-1.78,1.37-2.92h3c0,3.83-1.52,5.06-4.32,5.06C92,14.79,92,11.14,92,7.4Z"/><path class="cls-1" d="M102,14.55l4-14.31h4l3.88,14.31h-3.15l-.79-3.17h-4.09l-.81,3.17ZM107.72,3h0l-1.37,6.19h2.85Z"/><path class="cls-1" d="M118,14.55h-3V.24h5.53c2,0,3.36,1.31,3.36,3.75,0,1.82-.72,3.19-2.66,3.51v0a2.55,2.55,0,0,1,2.6,2.82,20.11,20.11,0,0,0,.33,4.2h-2.93a6.49,6.49,0,0,1-.32-2.77c0-1.71.16-3.16-2.14-3.16H118Zm0-8.13h1.33c1.19,0,1.52-1.19,1.52-2.1,0-1.37-.57-1.88-1.52-1.88H118Z"/><path class="cls-1" d="M126,.24h5c3.93,0,4.66,2.61,4.66,7.08,0,2.2.34,7.23-4.78,7.23H126Zm3,12.11h1.45c1.82,0,2.18-1.37,2.18-4.95,0-2.64,0-5-2.08-5H129Z"/></svg>