<?xml version="1.0" encoding="UTF-8"?>
<svg width="391px" height="39px" viewBox="0 0 391 39" version="1.1" xmlns="http://www.w3.org/2000/svg" xmlns:xlink="http://www.w3.org/1999/xlink">
    <title>TW-wordmark</title>
    <g id="Tradingworks-BI-2019" stroke="none" stroke-width="1" fill="none" fill-rule="evenodd">
        <g id="TW-BI__DSP--2019" transform="translate(-715.000000, -143.000000)">
            <g id="TW-full--horz" transform="translate(575.000000, 78.000000)">
                <g id="TW-wordmark" transform="translate(140.679012, 65.432099)">
                    <path d="M49.9209763,37.122812 L42.4477763,23.8056603 L40.0370666,23.8056603 L40.0370666,37.122812 L30.5147633,37.122812 L30.5147633,0.525677041 L42.0620627,0.525677041 C51.6406638,0.525677041 56.4298925,4.13028356 56.4298925,11.3396047 C56.4298925,15.5784186 54.4370591,18.8576092 50.4513325,21.1772751 L59.484,35.202 L70.3830802,0.375483601 L83.0875203,0.375483601 L94.7312481,37.122812 L84.3169822,37.122812 L82.5812713,30.2639782 L71.1304002,30.2639782 L69.346475,37.122812 L49.9209763,37.122812 Z M18.1285369,37.122812 L8.60623361,37.122812 L8.60623361,8.61109058 L0,8.61109058 L0,0.525677041 L26.7106634,0.525677041 L26.7106634,8.61109058 L18.1285369,8.61109058 L18.1285369,37.122812 Z M40.0370666,16.371085 L41.8209918,16.371085 C45.1477878,16.371085 46.8111608,14.8441336 46.8111608,11.7901851 C46.8111608,9.2702603 45.1799302,8.01031681 41.9174201,8.01031681 L40.0370666,8.01031681 L40.0370666,16.371085 Z M80.6044893,22.1535324 L79.0857422,16.1457948 C78.7321697,14.8107354 78.3022641,13.0835281 77.7960125,10.9641211 C77.2897609,8.84471422 76.9562828,7.32610684 76.795568,6.40825345 C76.6509247,7.25935387 76.3656602,8.66114529 75.939766,10.6136698 C75.5138719,12.5661943 74.5696867,16.4127767 73.1071822,22.1535324 L80.6044893,22.1535324 Z M127.222793,18.0482451 C127.222793,24.1561422 125.603616,28.8621563 122.365213,32.1664285 C119.12681,35.4707007 114.574632,37.122812 108.708543,37.122812 L97.3058861,37.122812 L97.3058861,0.525677041 L109.504077,0.525677041 C115.161237,0.525677041 119.528596,2.02759642 122.606284,5.03148025 C125.683972,8.03536407 127.222793,12.3742423 127.222793,18.0482451 Z M117.338884,18.3986964 C117.338884,15.0443595 116.700052,12.5578485 115.422369,10.9390889 C114.144687,9.32032928 112.204085,8.51096162 109.600505,8.51096162 L106.828189,8.51096162 L106.828189,29.0123662 L108.949614,29.0123662 C111.84248,29.0123662 113.963883,28.1404186 115.313887,26.3964971 C116.663892,24.6525757 117.338884,21.9866688 117.338884,18.3986964 Z M132.304569,37.122812 L132.304569,0.525677041 L141.875087,0.525677041 L141.875087,37.122812 L132.304569,37.122812 Z M181.815725,37.122812 L169.328249,37.122812 L156.455059,11.3396047 L156.238095,11.3396047 C156.543453,15.3948479 156.69613,18.4904706 156.69613,20.6265658 L156.69613,37.122812 L148.258646,37.122812 L148.258646,0.525677041 L160.697908,0.525677041 L173.522884,25.9584329 L173.667526,25.9584329 C173.442526,22.2703311 173.330027,19.3082123 173.330027,17.0719877 L173.330027,0.525677041 L181.815725,0.525677041 L181.815725,37.122812 Z M202.35015,15.6952145 L217.561728,15.6952145 L217.561728,35.4206197 C213.431358,36.8891851 208.891234,37.6234568 203.941219,37.6234568 C198.509059,37.6234568 194.310448,35.9880335 191.34526,32.7171377 C188.380073,29.446242 186.897501,24.7819479 186.897501,18.7241156 C186.897501,12.8164774 188.520696,8.21893525 191.767135,4.93135129 C195.013573,1.64376733 199.561733,0 205.411752,0 C207.629616,0 209.722894,0.216943911 211.69165,0.650838241 C213.660406,1.08473257 215.376011,1.63543635 216.838515,2.30296608 L213.825128,10.0629605 C211.285835,8.76127751 208.497475,8.11044578 205.459966,8.11044578 C202.6796,8.11044578 200.530072,9.04914539 199.011317,10.9265728 C197.492563,12.8040002 196.733197,15.4865951 196.733197,18.974438 C196.733197,22.3955279 197.420242,25.0030268 198.794353,26.797013 C200.168465,28.5909991 202.149245,29.4879788 204.736753,29.4879788 C206.151043,29.4879788 207.452813,29.3461308 208.642103,29.0624307 L208.642103,23.3300477 L202.35015,23.3300477 L202.35015,15.6952145 Z" id="TRADING__Opensans-extrabold" fill="#3E566D"></path>
                    <path d="M285.237015,0 C290.493563,0 294.556846,1.64158292 297.426986,4.924798 C300.297126,8.20801308 301.732174,12.8327771 301.732174,18.7992289 C301.732174,24.7490146 300.293095,29.3737787 297.414893,32.6736598 C294.536691,35.973541 290.461315,37.6234568 285.188642,37.6234568 C279.851472,37.6234568 275.751909,35.9860403 272.889832,32.7111583 C270.027754,29.4362762 268.596737,24.782347 268.596737,18.749231 C268.596737,12.7161149 270.035816,8.08301796 272.914018,4.84980107 C275.79222,1.61658419 279.899845,0 285.237015,0 Z M378.678949,0.0499979492 C382.065069,0.0499979492 385.435014,0.816625504 388.788886,2.34990361 L386.950715,7.22470366 C383.806461,5.85808622 381.000861,5.17478774 378.533831,5.17478774 C376.663402,5.17478774 375.244478,5.59559961 374.277015,6.43723596 C373.309552,7.27887232 372.825828,8.39131556 372.825828,9.77459907 C372.825828,10.7245649 373.019318,11.5370234 373.406303,12.2119991 C373.793288,12.8869748 374.430192,13.5244423 375.317033,14.1244207 C376.203874,14.724399 377.800163,15.5160253 380.10595,16.4993232 C382.701975,17.6159497 384.604624,18.6575632 385.813952,19.6241951 C387.023281,20.5908269 387.910109,21.6824379 388.474462,22.8990607 C389.038815,24.1156836 389.320988,25.5489438 389.320988,27.1988844 C389.320988,30.4487673 388.184236,32.9986372 385.910698,34.8485706 C383.63716,36.698504 380.501015,37.6234568 376.502169,37.6234568 C372.503322,37.6234568 369.230122,36.9818229 366.68247,35.6985357 L366.68247,30.0487675 C368.294908,30.8320726 370.008098,31.4487078 371.82209,31.8986916 C373.636083,32.3486754 375.325087,32.5736639 376.889152,32.5736639 C379.178814,32.5736639 380.867818,32.1236869 381.956213,31.2237193 C383.044609,30.3237517 383.588799,29.11548 383.588799,27.598868 C383.588799,26.2322505 383.08895,25.0739763 382.089239,24.1240105 C381.089527,23.1740447 379.025637,22.0491021 375.897507,20.7491489 C372.672631,19.3991975 370.399127,17.8576095 369.076928,16.1243386 C367.754729,14.3910677 367.093639,12.3078407 367.093639,9.87459497 C367.093639,6.82470482 368.141708,4.42482726 370.237878,2.67489028 C372.334047,0.924953311 375.14771,0.0499979492 378.678949,0.0499979492 Z M226.734827,0.574976416 L231.789796,21.8741028 C232.57989,25.2906464 233.144235,28.3071592 233.482847,30.9237316 C233.660215,29.5071159 233.926264,27.9238634 234.281,26.1739264 C234.635736,24.4239894 234.958219,23.0073951 235.248458,21.9241007 L241.004833,0.574976416 L246.737022,0.574976416 L252.638516,22.0240966 C253.20287,24.0073585 253.799463,26.9738739 254.428314,30.9237316 C254.670179,28.5404841 255.250648,25.5073055 256.169738,21.8241048 L261.20052,0.574976416 L267.053641,0.574976416 L257.838603,37.1234773 L251.550126,37.1234773 L245.551886,15.3243714 C245.293896,14.3744057 244.971413,13.0036423 244.584428,11.2120401 C244.197443,9.42043797 243.963643,8.1746682 243.883021,7.47469341 C243.721777,8.54132166 243.45976,9.92458442 243.096961,11.6245232 C242.734163,13.324462 242.431835,14.591064 242.189969,15.4243673 L236.336848,37.1234773 L230.048371,37.1234773 L225.477132,18.8242279 L220.833333,0.574976416 L226.734827,0.574976416 Z M318.077378,0.574976416 C322.640578,0.574976416 326.018585,1.45826469 328.211501,3.22486772 C330.404417,4.99147076 331.500858,7.65800139 331.500858,11.2245396 C331.500858,15.7743757 329.21123,19.015877 324.631906,20.9491407 L334.62091,37.1234773 L328.042196,37.1234773 L319.576938,22.5240761 L313.868935,22.5240761 L313.868935,37.1234773 L308.088374,37.1234773 L308.088374,0.574976416 L318.077378,0.574976416 Z M344.290653,0.574976416 L344.290653,18.0242607 C345.870843,16.0243327 347.442946,14.0994309 349.007011,12.2494976 L358.560659,0.574976416 L365.139374,0.574976416 C358.963736,8.0747063 354.53766,13.4161005 351.861012,16.5993191 L365.502171,37.1234773 L358.802524,37.1234773 L347.700943,20.5741561 L344.290653,23.4490382 L344.290653,37.1234773 L338.510092,37.1234773 L338.510092,0.574976416 L344.290653,0.574976416 Z M285.237015,5.1247898 C281.770273,5.1247898 279.154131,6.28306404 277.388511,8.59964727 C275.622892,10.9162305 274.740095,14.316057 274.740095,18.7992289 C274.740095,23.2990668 275.618861,26.7113927 277.376418,29.036309 C279.133976,31.3612253 281.738024,32.523666 285.188642,32.523666 C288.623135,32.523666 291.215091,31.3737246 292.964586,29.0738075 C294.714081,26.7738903 295.588816,23.349065 295.588816,18.7992289 C295.588816,14.316057 294.722143,10.9162305 292.988772,8.59964727 C291.255401,6.28306404 288.671508,5.1247898 285.237015,5.1247898 Z M317.690395,5.62476929 L313.868935,5.62476929 L313.868935,17.5742792 L317.883886,17.5742792 C320.576658,17.5742792 322.527679,17.0576388 323.737007,16.0243427 C324.946336,14.9910466 325.550991,13.4577915 325.550991,11.4245314 C325.550991,9.35793916 324.897964,7.8746815 323.591889,6.97471392 C322.285814,6.07474633 320.318669,5.62476929 317.690395,5.62476929 Z" id="WORKS__Opensans-semibold" fill="#7C93A3"></path>
                </g>
            </g>
        </g>
    </g>
</svg>